<svg width="32" height="32" viewBox="0 0 32 32" fill="none" xmlns="http://www.w3.org/2000/svg">
<path d="M2.4219 15.7812L15.2938 2.91874C15.3865 2.82587 15.4965 2.7522 15.6177 2.70193C15.7389 2.65167 15.8688 2.62579 16 2.62579C16.1312 2.62579 16.2611 2.65167 16.3823 2.70193C16.5035 2.7522 16.6136 2.82587 16.7063 2.91874L29.5781 15.7812C29.9531 16.1562 30.1656 16.6656 30.1656 17.1969C30.1656 18.3 29.2688 19.1969 28.1656 19.1969H26.8094V28.375C26.8094 28.9281 26.3625 29.375 25.8094 29.375H18V22.375H14.5V29.375H6.19065C5.63752 29.375 5.19065 28.9281 5.19065 28.375V19.1969H3.8344C3.30315 19.1969 2.79378 18.9875 2.41878 18.6094C1.64065 17.8281 1.64065 16.5625 2.4219 15.7812Z" fill="white"/>
</svg>
