<svg width="30" height="30" viewBox="0 0 40 40" fill="none" xmlns="http://www.w3.org/2000/svg">
<path d="M16.6667 35H23.3333C23.3333 35.884 22.9821 36.7319 22.357 37.357C21.7319 37.9821 20.884 38.3333 20 38.3333C19.1159 38.3333 18.2681 37.9821 17.643 37.357C17.0178 36.7319 16.6667 35.884 16.6667 35ZM35 31.6666V33.3333H4.99999V31.6666L8.33332 28.3333V18.3333C8.33332 13.1666 11.7167 8.61665 16.6667 7.14998V6.66665C16.6667 5.78259 17.0178 4.93474 17.643 4.30962C18.2681 3.6845 19.1159 3.33331 20 3.33331C20.884 3.33331 21.7319 3.6845 22.357 4.30962C22.9821 4.93474 23.3333 5.78259 23.3333 6.66665V7.14998C28.2833 8.61665 31.6667 13.1666 31.6667 18.3333V28.3333L35 31.6666ZM28.3333 18.3333C28.3333 16.1232 27.4554 14.0036 25.8925 12.4408C24.3297 10.878 22.2101 9.99998 20 9.99998C17.7899 9.99998 15.6702 10.878 14.1074 12.4408C12.5446 14.0036 11.6667 16.1232 11.6667 18.3333V30H28.3333V18.3333ZM32.9167 5.31665L30.55 7.68331C31.9596 9.07568 33.0788 10.734 33.8427 12.5622C34.6066 14.3904 34.9999 16.352 35 18.3333H38.3333C38.3333 13.45 36.4 8.74998 32.9167 5.31665ZM1.66666 18.3333H4.99999C4.99999 14.3333 6.59999 10.5 9.44999 7.68331L7.08332 5.31665C5.36313 7.01926 3.99844 9.04676 3.06856 11.2813C2.13868 13.5159 1.66215 15.913 1.66666 18.3333Z" fill="black"/>
</svg>
