<svg width="32" height="32" viewBox="0 0 32 32" fill="none" xmlns="http://www.w3.org/2000/svg">
<path d="M12.6064 12C13.4128 11.024 14.6336 10.4 16 10.4C17.3664 10.4 18.5872 11.024 19.3936 12C19.9245 12.6437 20.2614 13.4251 20.3651 14.253C20.4687 15.081 20.3349 15.9213 19.979 16.676C19.6232 17.4307 19.0601 18.0687 18.3554 18.5156C17.6508 18.9624 16.8336 19.1997 15.9992 19.1997C15.1648 19.1997 14.3476 18.9624 13.6429 18.5156C12.9382 18.0687 12.3751 17.4307 12.0193 16.676C11.6635 15.9213 11.5296 15.081 11.6333 14.253C11.7369 13.4251 12.0739 12.6437 12.6048 12H12.6064ZM22 14.8C22 13.7888 21.7504 12.8352 21.3088 12H28C28.6365 12 29.2469 12.2529 29.697 12.7029C30.1471 13.153 30.4 13.7635 30.4 14.4V15.2C30.4 17.7392 28.4704 20.3392 25.096 21.2544C24.7492 20.6315 24.2423 20.1126 23.6276 19.7514C23.0129 19.3902 22.3129 19.1998 21.6 19.2H20.08C20.6864 18.6389 21.1701 17.9583 21.5006 17.201C21.831 16.4437 22.001 15.6262 22 14.8ZM21.6 20.8C21.9154 20.7992 22.2278 20.8607 22.5194 20.981C22.811 21.1013 23.0759 21.278 23.2989 21.5011C23.5219 21.7241 23.6987 21.989 23.819 22.2806C23.9393 22.5721 24.0008 22.8846 24 23.2V24C24 27.1536 21.024 30.4 16 30.4C10.976 30.4 7.99998 27.1536 7.99998 24V23.2C7.99913 22.8846 8.06063 22.5721 8.18094 22.2806C8.30126 21.989 8.47801 21.7241 8.70104 21.5011C8.92406 21.278 9.18897 21.1013 9.48054 20.981C9.7721 20.8607 10.0846 20.7992 10.4 20.8H21.6ZM1.59998 15.2C1.59998 17.7392 3.52958 20.3392 6.90398 21.2544C7.25075 20.6315 7.7577 20.1126 8.37236 19.7514C8.98702 19.3902 9.68704 19.1998 10.4 19.2H11.92C11.3135 18.6389 10.8298 17.9583 10.4994 17.201C10.169 16.4437 9.99891 15.6262 9.99998 14.8C9.99998 13.7888 10.2496 12.8352 10.6928 12H3.99998C3.36346 12 2.75301 12.2529 2.30292 12.7029C1.85283 13.153 1.59998 13.7635 1.59998 14.4V15.2ZM14 6.00001C14 4.83305 13.5364 3.7139 12.7112 2.88874C11.8861 2.06358 10.7669 1.60001 9.59998 1.60001C8.43302 1.60001 7.31387 2.06358 6.48871 2.88874C5.66355 3.7139 5.19998 4.83305 5.19998 6.00001C5.19998 7.16696 5.66355 8.28612 6.48871 9.11128C7.31387 9.93644 8.43302 10.4 9.59998 10.4C10.7669 10.4 11.8861 9.93644 12.7112 9.11128C13.5364 8.28612 14 7.16696 14 6.00001ZM26.8 6.00001C26.8 4.83305 26.3364 3.7139 25.5112 2.88874C24.6861 2.06358 23.5669 1.60001 22.4 1.60001C21.233 1.60001 20.1139 2.06358 19.2887 2.88874C18.4635 3.7139 18 4.83305 18 6.00001C18 7.16696 18.4635 8.28612 19.2887 9.11128C20.1139 9.93644 21.233 10.4 22.4 10.4C23.5669 10.4 24.6861 9.93644 25.5112 9.11128C26.3364 8.28612 26.8 7.16696 26.8 6.00001Z" fill="white"/>
</svg>
