<svg width="32" height="32" viewBox="0 0 32 32" fill="none" xmlns="http://www.w3.org/2000/svg">
<path d="M25.3333 3.42H6.66665C5.60578 3.42 4.58837 3.84143 3.83822 4.59158C3.08808 5.34172 2.66665 6.35914 2.66665 7.42V18.0867C2.66665 19.1475 3.08808 20.165 3.83822 20.9151C4.58837 21.6652 5.60578 22.0867 6.66665 22.0867H15.944L24.536 28.4973C24.7344 28.6453 24.97 28.7352 25.2166 28.7569C25.4631 28.7786 25.7108 28.7312 25.932 28.6201C26.1531 28.5089 26.339 28.3384 26.4687 28.1277C26.5985 27.9169 26.667 27.6742 26.6666 27.4267V22.0853C27.3739 22.0853 28.0522 21.8044 28.5523 21.3043C29.0524 20.8042 29.3333 20.1259 29.3333 19.4187V7.41867C29.3333 6.3578 28.9119 5.34039 28.1617 4.59024C27.4116 3.8401 26.3942 3.41867 25.3333 3.41867V3.42Z" fill="white"/>
</svg>
