<svg width="32" height="32" viewBox="0 0 32 32" fill="none" xmlns="http://www.w3.org/2000/svg">
<path d="M27 0H3C1.35 0 0 1.35 0 3V29C0 30.65 1.35 32 3 32H27C28.65 32 30 30.65 30 29V3C30 1.35 28.65 0 27 0ZM26 28H4V4H26V28ZM8 18H22V20H8V18ZM8 22H22V24H8V22ZM10 9C10.0001 8.6059 10.0779 8.21569 10.2288 7.85164C10.3798 7.4876 10.6009 7.15684 10.8797 6.87827C11.1584 6.59969 11.4893 6.37875 11.8535 6.22806C12.2176 6.07736 12.6079 5.99987 13.002 6C13.3961 6.00013 13.7863 6.07788 14.1504 6.22882C14.5144 6.37976 14.8452 6.60092 15.1237 6.87968C15.4023 7.15844 15.6233 7.48934 15.7739 7.85349C15.9246 8.21764 16.0021 8.6079 16.002 9.002C16.0017 9.79791 15.6853 10.5611 15.1223 11.1237C14.5593 11.6863 13.7959 12.0023 13 12.002C12.2041 12.0017 11.4409 11.6853 10.8783 11.1223C10.3157 10.5593 9.99973 9.79591 10 9ZM15 12H11C9.35 12 8 12.9 8 14V16H18V14C18 12.9 16.65 12 15 12Z" fill="white"/>
</svg>
