<svg width="32" height="32" viewBox="0 0 32 32" fill="none" xmlns="http://www.w3.org/2000/svg">
<path d="M16 15.36C15.04 15.36 14.4 16 14.4 16.96C14.4 17.6 14.88 18.08 15.36 18.24L14.88 20.48H16.96L16.48 18.24C17.12 18.08 17.44 17.6 17.44 16.96C17.6 16 16.96 15.36 16 15.36ZM16.16 8.48C15.04 8.48 13.92 9.28 13.92 10.4V12.8H18.24V10.4C18.08 9.28 17.28 8.48 16.16 8.48ZM16 3.2L4.79999 8V12.8C4.95999 19.84 9.43999 26.08 16 28.64C22.56 26.08 27.04 19.84 27.2 12.8V8L16 3.2ZM22.4 20.8C22.4 21.76 21.76 22.4 20.8 22.4H11.2C10.24 22.4 9.59999 21.76 9.59999 20.8V14.4C9.59999 13.44 10.24 12.8 11.2 12.8H11.68V10.4C11.84 8.16 13.76 6.4 16 6.4C18.24 6.4 20.16 8.16 20.32 10.4V12.8H20.8C21.76 12.8 22.4 13.44 22.4 14.4V20.8Z" fill="white"/>
</svg>
