<svg width="32" height="32" viewBox="0 0 32 32" fill="none" xmlns="http://www.w3.org/2000/svg">
<path d="M18.4267 29.3333H13.5733C13.2692 29.3334 12.9743 29.2295 12.7373 29.0389C12.5004 28.8483 12.3357 28.5824 12.2707 28.2853L11.728 25.7733C11.0041 25.4561 10.3176 25.0595 9.68132 24.5907L7.23199 25.3707C6.94207 25.4631 6.62925 25.4536 6.34548 25.3438C6.06171 25.2339 5.82406 25.0303 5.67199 24.7667L3.23999 20.5653C3.08952 20.3015 3.03303 19.9944 3.07978 19.6943C3.12652 19.3942 3.27373 19.1189 3.49732 18.9133L5.39732 17.18C5.31092 16.3948 5.31092 15.6025 5.39732 14.8173L3.49732 13.088C3.27342 12.8824 3.12601 12.6068 3.07925 12.3064C3.0325 12.006 3.08917 11.6986 3.23999 11.4347L5.66666 7.23067C5.81872 6.96709 6.05638 6.76346 6.34015 6.65359C6.62392 6.54372 6.93674 6.53422 7.22666 6.62667L9.67599 7.40667C10.0013 7.16667 10.34 6.94267 10.6893 6.74C11.0267 6.55067 11.3733 6.37867 11.728 6.22534L12.272 3.716C12.3368 3.41894 12.5011 3.15292 12.7378 2.96207C12.9745 2.77122 13.2693 2.66699 13.5733 2.66667H18.4267C18.7307 2.66699 19.0255 2.77122 19.2622 2.96207C19.4989 3.15292 19.6632 3.41894 19.728 3.716L20.2773 6.22667C21.0003 6.5457 21.6866 6.94224 22.324 7.40934L24.7747 6.62934C25.0644 6.53723 25.3769 6.5469 25.6604 6.65675C25.9439 6.76661 26.1813 6.97004 26.3333 7.23334L28.76 11.4373C29.0693 11.98 28.9627 12.6667 28.5027 13.0893L26.6027 14.8227C26.6891 15.6079 26.6891 16.4002 26.6027 17.1853L28.5027 18.9187C28.9627 19.3427 29.0693 20.028 28.76 20.5707L26.3333 24.7747C26.1813 25.0382 25.9436 25.2419 25.6598 25.3518C25.3761 25.4616 25.0632 25.4711 24.7733 25.3787L22.324 24.5987C21.6882 25.0671 21.0022 25.4634 20.2787 25.78L19.728 28.2853C19.663 28.5822 19.4985 28.8479 19.2618 29.0385C19.0252 29.229 18.7305 29.3331 18.4267 29.3333ZM15.9947 10.6667C14.5802 10.6667 13.2236 11.2286 12.2234 12.2288C11.2232 13.229 10.6613 14.5855 10.6613 16C10.6613 17.4145 11.2232 18.771 12.2234 19.7712C13.2236 20.7714 14.5802 21.3333 15.9947 21.3333C17.4091 21.3333 18.7657 20.7714 19.7659 19.7712C20.7661 18.771 21.328 17.4145 21.328 16C21.328 14.5855 20.7661 13.229 19.7659 12.2288C18.7657 11.2286 17.4091 10.6667 15.9947 10.6667Z" fill="white"/>
</svg>
