<svg width="32" height="32" viewBox="0 0 32 32" fill="none" xmlns="http://www.w3.org/2000/svg">
<g clip-path="url(#clip0_3_9)">
<path d="M26.0356 4.40001H19.6356C19.3797 3.63964 18.8917 2.97876 18.2402 2.51058C17.5887 2.04241 16.8067 1.79056 16.0045 1.79056C15.2022 1.79056 14.4202 2.04241 13.7687 2.51058C13.1172 2.97876 12.6292 3.63964 12.3733 4.40001H6.22224C6.00455 4.36853 5.78266 4.38357 5.57121 4.44413C5.35977 4.5047 5.16357 4.60942 4.99557 4.75138C4.82756 4.89335 4.69158 5.06932 4.59658 5.2677C4.50158 5.46608 4.44973 5.68235 4.44446 5.90223V28.6756C4.44562 28.874 4.48586 29.0703 4.56288 29.2532C4.6399 29.4361 4.75218 29.602 4.89333 29.7415C5.03448 29.881 5.20172 29.9913 5.3855 30.0662C5.56928 30.141 5.76602 30.179 5.96446 30.1778H26.0356C26.234 30.179 26.4307 30.141 26.6145 30.0662C26.7983 29.9913 26.9656 29.881 27.1067 29.7415C27.2478 29.602 27.3601 29.4361 27.4371 29.2532C27.5142 29.0703 27.5544 28.874 27.5556 28.6756V5.90223C27.5544 5.70379 27.5142 5.50752 27.4371 5.32463C27.3601 5.14174 27.2478 4.97581 27.1067 4.83631C26.9656 4.69682 26.7983 4.58649 26.6145 4.51163C26.4307 4.43677 26.234 4.39884 26.0356 4.40001ZM10.0356 7.06668C10.0356 6.83093 10.1292 6.60484 10.2959 6.43814C10.4626 6.27144 10.6887 6.17779 10.9245 6.17779H13.9822V5.61779C13.9822 5.07203 14.199 4.54863 14.5849 4.16272C14.9709 3.77681 15.4943 3.56001 16.04 3.56001C16.5858 3.56001 17.1092 3.77681 17.4951 4.16272C17.881 4.54863 18.0978 5.07203 18.0978 5.61779V6.22224H21.1556C21.3913 6.22224 21.6174 6.31589 21.7841 6.48258C21.9508 6.64928 22.0445 6.87538 22.0445 7.11112V8.71112H10L10.0356 7.06668ZM22.9422 15.2711L14.8356 23.3778L10.1778 18.72C9.94204 18.4843 9.8096 18.1645 9.8096 17.8311C9.8096 17.4977 9.94204 17.178 10.1778 16.9422C10.4135 16.7065 10.7333 16.574 11.0667 16.574C11.4001 16.574 11.7198 16.7065 11.9556 16.9422L14.8533 19.84L21.2 13.4933C21.4358 13.2576 21.7555 13.1252 22.0889 13.1252C22.4223 13.1252 22.742 13.2576 22.9778 13.4933C23.2135 13.7291 23.346 14.0488 23.346 14.3822C23.346 14.7156 23.2135 15.0354 22.9778 15.2711H22.9422Z" fill="white"/>
</g>
<defs>
<clipPath id="clip0_3_9">
<rect width="32" height="32" fill="white"/>
</clipPath>
</defs>
</svg>
